<svg width="24" height="24" viewBox="0 0 24 24" fill="none" xmlns="http://www.w3.org/2000/svg">
    <path fill-rule="evenodd" clip-rule="evenodd" d="M10.9091 0H13.3635L14.5945 2.76535C15.4093 2.99318 16.1804 3.32582 16.8922 3.74783L19.7098 2.73177L21.4394 4.49882L20.3633 7.28994C20.7568 7.98566 21.0659 8.73541 21.2767 9.52527L24 10.7687V13.2401L21.2767 14.4836C21.0572 15.3061 20.7311 16.0852 20.3141 16.805L21.3609 19.6097L19.6121 21.3578L16.8063 20.3114C16.0756 20.7344 15.284 21.0638 14.4478 21.2833L13.1942 24.0002L10.7203 23.9907L9.48772 21.264C8.66596 21.0414 7.88797 20.7124 7.16947 20.2928L4.36107 21.3283L2.61865 19.5738L3.67543 16.7733C3.25468 16.0406 2.92791 15.2472 2.71153 14.4093L0 13.1454L0.018843 10.674L2.75097 9.45175C2.97613 8.63442 3.30676 7.86078 3.72732 7.14638L2.70113 4.33449L4.46259 2.59912L7.25869 3.66465C7.99527 3.24497 8.79284 2.91999 9.63482 2.70628L10.9091 0ZM11.9927 18.0006C15.3083 18.0006 17.9962 15.3112 17.9962 11.9937C17.9962 8.67623 15.3083 5.98687 11.9927 5.98687C8.6771 5.98687 5.98926 8.67623 5.98926 11.9937C5.98926 15.3112 8.6771 18.0006 11.9927 18.0006Z" fill="#96ABE3"/>
</svg>
