<svg width="24" height="20" viewBox="0 0 24 20" fill="none" xmlns="http://www.w3.org/2000/svg">
    <path d="M0 0H24V6H13.2C13.2 6 13.2 7.79086 13.2 10C13.2 12.2091 13.2 14 13.2 14H24V20H1.47701e-05L0 0Z" fill="#96ABE3"/>
    <path fill-rule="evenodd" clip-rule="evenodd" d="M15 8H24V12H15C15 12 15 11.1046 15 10C15 8.89543 15 8 15 8ZM16.8002 9.33333C16.8002 9.33333 16.8002 9.63181 16.8002 10C16.8002 10.3682 16.8002 10.6667 16.8002 10.6667H19.2003C19.2003 10.6667 19.2003 10.3682 19.2003 10C19.2003 9.63181 19.2003 9.33333 19.2003 9.33333H16.8002Z" fill="#96ABE3"/>
</svg>
