<svg width="24" height="24" viewBox="0 0 24 24" fill="none" xmlns="http://www.w3.org/2000/svg">
    <path d="M24 0H0V10.8H4.8V7.2H3.6V3.6H20.4V7.2H19.2V10.8H24V0Z" fill="#96ABE3"/>
    <path d="M6.6 5.4H9.3C9.3 5.85599 9.1558 6.55997 8.74962 7.12412C8.37647 7.64238 7.74668 8.1 6.6 8.1V5.4Z" fill="#96ABE3"/>
    <path fill-rule="evenodd" clip-rule="evenodd" d="M10.2104 8.17588C10.8842 7.24003 11.1 6.14401 11.1 5.4H12.9C12.9 6.14401 13.1158 7.24003 13.7896 8.17588C14.4965 9.15762 15.6667 9.9 17.4 9.9V19.5C15.6667 19.5 14.4965 20.2424 13.7896 21.2241C13.1158 22.16 12.9 23.256 12.9 24H11.1C11.1 23.256 10.8842 22.16 10.2104 21.2241C9.50352 20.2424 8.33333 19.5 6.6 19.5V9.9C8.33333 9.9 9.50352 9.15762 10.2104 8.17588ZM14.4 14.6789C14.4 16.0044 13.3255 17.0789 12 17.0789C10.6745 17.0789 9.6 16.0044 9.6 14.6789C9.6 13.3534 10.6745 12.2789 12 12.2789C13.3255 12.2789 14.4 13.3534 14.4 14.6789Z" fill="#96ABE3"/>
    <path d="M6.6 21.3V24H9.3C9.3 23.544 9.1558 22.84 8.74962 22.2759C8.37647 21.7576 7.74668 21.3 6.6 21.3Z" fill="#96ABE3"/>
    <path d="M14.7 24H17.4V21.3C16.2533 21.3 15.6235 21.7576 15.2504 22.2759C14.8442 22.84 14.7 23.544 14.7 24Z" fill="#96ABE3"/>
    <path d="M15.2504 7.12412C14.8442 6.55997 14.7 5.85599 14.7 5.4H17.4V8.1C16.2533 8.1 15.6235 7.64238 15.2504 7.12412Z" fill="#96ABE3"/>
</svg>
